<?xml version="1.0" encoding="UTF-8"?>
<svg xmlns="http://www.w3.org/2000/svg" xmlns:xlink="http://www.w3.org/1999/xlink" width="32pt" height="32pt" viewBox="0 0 32 32" version="1.1">
<g id="surface1">
<path style=" stroke:none;fill-rule:nonzero;fill:rgb(98.823529%,43.529412%,34.509804%);fill-opacity:1;" d="M 32 16 C 32 24.835938 24.835938 32 16 32 C 7.164062 32 0 24.835938 0 16 C 0 7.164062 7.164062 0 16 0 C 24.835938 0 32 7.164062 32 16 Z M 32 16 "/>
<path style=" stroke:none;fill-rule:nonzero;fill:rgb(94.509804%,32.941176%,24.705882%);fill-opacity:1;" d="M 31.152344 21.152344 L 21.378906 11.378906 L 20.308594 12.050781 L 14.574219 6.316406 L 13.378906 8.675781 L 11.0625 9.828125 L 15.996094 14.757812 L 14.867188 16.355469 L 6.949219 24.335938 L 14.550781 31.933594 C 15.027344 31.976562 15.511719 32 16 32 C 23.035156 32 29.007812 27.460938 31.152344 21.152344 Z M 31.152344 21.152344 "/>
<path style=" stroke:none;fill-rule:nonzero;fill:rgb(56.470588%,87.45098%,66.666667%);fill-opacity:1;" d="M 13.050781 22.003906 C 13.050781 18.660156 15.757812 15.949219 19.101562 15.949219 C 22.445312 15.949219 25.160156 18.660156 25.160156 22.003906 Z M 13.050781 22.003906 "/>
<path style=" stroke:none;fill-rule:nonzero;fill:rgb(17.254902%,60%,51.764706%);fill-opacity:1;" d="M 19.101562 15.949219 C 19.101562 15.949219 19.09375 15.949219 19.085938 15.949219 L 19.085938 22.003906 L 25.160156 22.003906 C 25.160156 18.660156 22.445312 15.949219 19.101562 15.949219 Z M 19.101562 15.949219 "/>
<path style=" stroke:none;fill-rule:nonzero;fill:rgb(19.607843%,29.019608%,36.862745%);fill-opacity:1;" d="M 6.949219 24.335938 C 6.949219 20.992188 9.660156 18.277344 13.003906 18.277344 C 16.347656 18.277344 19.054688 20.992188 19.054688 24.335938 Z M 6.949219 24.335938 "/>
<path style=" stroke:none;fill-rule:nonzero;fill:rgb(16.862745%,23.137255%,30.588235%);fill-opacity:1;" d="M 13.003906 18.277344 C 13.003906 18.277344 13.003906 18.277344 13 18.277344 L 13 24.335938 L 19.058594 24.335938 C 19.058594 20.992188 16.347656 18.277344 13.003906 18.277344 Z M 13.003906 18.277344 "/>
<path style=" stroke:none;fill-rule:nonzero;fill:rgb(99.607843%,84.705882%,69.803922%);fill-opacity:1;" d="M 22.5625 13.984375 C 22.5625 15.894531 21.015625 17.445312 19.101562 17.445312 C 17.195312 17.445312 15.644531 15.894531 15.644531 13.984375 C 15.644531 12.070312 17.195312 10.523438 19.101562 10.523438 C 21.015625 10.523438 22.5625 12.070312 22.5625 13.984375 Z M 22.5625 13.984375 "/>
<path style=" stroke:none;fill-rule:nonzero;fill:rgb(95.686275%,77.647059%,61.568627%);fill-opacity:1;" d="M 19.101562 10.523438 C 19.101562 10.523438 19.09375 10.523438 19.085938 10.523438 L 19.085938 17.445312 C 19.09375 17.445312 19.101562 17.445312 19.101562 17.445312 C 21.015625 17.445312 22.5625 15.894531 22.5625 13.984375 C 22.5625 12.074219 21.015625 10.523438 19.101562 10.523438 Z M 19.101562 10.523438 "/>
<path style=" stroke:none;fill-rule:nonzero;fill:rgb(100%,100%,100%);fill-opacity:1;" d="M 16.460938 16.3125 C 16.460938 18.226562 14.914062 19.773438 13.003906 19.773438 C 11.09375 19.773438 9.542969 18.226562 9.542969 16.3125 C 9.542969 14.402344 11.09375 12.851562 13.003906 12.851562 C 14.914062 12.851562 16.460938 14.402344 16.460938 16.3125 Z M 16.460938 16.3125 "/>
<path style=" stroke:none;fill-rule:nonzero;fill:rgb(95.686275%,89.019608%,76.470588%);fill-opacity:1;" d="M 13.003906 12.851562 C 13.003906 12.851562 13.003906 12.851562 13 12.851562 L 13 19.773438 C 13.003906 19.773438 13.003906 19.773438 13.003906 19.773438 C 14.914062 19.773438 16.460938 18.226562 16.460938 16.3125 C 16.460938 14.402344 14.914062 12.851562 13.003906 12.851562 Z M 13.003906 12.851562 "/>
<path style=" stroke:none;fill-rule:nonzero;fill:rgb(19.607843%,29.019608%,36.862745%);fill-opacity:1;" d="M 16.515625 8.257812 L 14.574219 8.257812 L 14.574219 6.316406 L 13.003906 6.316406 L 13.003906 8.257812 L 11.0625 8.257812 L 11.0625 9.828125 L 13.003906 9.824219 L 13.003906 11.769531 L 14.574219 11.769531 L 14.574219 9.824219 L 16.515625 9.824219 Z M 16.515625 8.257812 "/>
<path style=" stroke:none;fill-rule:nonzero;fill:rgb(16.862745%,23.137255%,30.588235%);fill-opacity:1;" d="M 14.574219 8.257812 L 14.574219 6.316406 L 13.757812 6.316406 L 13.757812 11.769531 L 14.574219 11.769531 L 14.574219 9.824219 L 16.515625 9.824219 L 16.515625 8.257812 Z M 14.574219 8.257812 "/>
</g>
</svg>
