<?xml version="1.0" encoding="UTF-8"?>
<svg xmlns="http://www.w3.org/2000/svg" xmlns:xlink="http://www.w3.org/1999/xlink" width="32pt" height="32pt" viewBox="0 0 32 32" version="1.1">
<g id="surface1">
<path style=" stroke:none;fill-rule:nonzero;fill:rgb(100%,88.627451%,52.156863%);fill-opacity:1;" d="M 30.496094 16.289062 C 30.773438 16.304688 31 16.523438 31.011719 16.804688 C 31.074219 18.132812 30.695312 21.847656 25.523438 26.585938 C 20.710938 31 15.328125 31.046875 12.460938 28.179688 L 4.101562 19.816406 C 3.460938 19.179688 3.460938 18.148438 4.101562 17.511719 L 15.101562 6.511719 C 15.734375 5.878906 16.765625 5.878906 17.402344 6.511719 C 17.402344 6.511719 26.429688 16.054688 30.496094 16.289062 Z M 30.496094 16.289062 "/>
<path style=" stroke:none;fill-rule:nonzero;fill:rgb(96.862745%,75.686275%,30.196078%);fill-opacity:1;" d="M 17.402344 6.511719 C 16.765625 5.878906 15.734375 5.878906 15.101562 6.511719 L 4.101562 17.511719 C 3.460938 18.148438 3.460938 19.179688 4.101562 19.816406 L 7.945312 23.664062 L 21.300781 10.308594 C 19.074219 8.277344 17.402344 6.511719 17.402344 6.511719 Z M 17.402344 6.511719 "/>
<path style=" stroke:none;fill-rule:nonzero;fill:rgb(94.117647%,60.784314%,14.117647%);fill-opacity:1;" d="M 17.917969 14.644531 C 18.054688 14.644531 18.195312 14.589844 18.304688 14.484375 C 18.515625 14.273438 18.515625 13.929688 18.304688 13.714844 L 16.335938 11.746094 L 15.566406 12.515625 L 17.535156 14.484375 C 17.640625 14.589844 17.78125 14.644531 17.917969 14.644531 Z M 17.917969 14.644531 "/>
<path style=" stroke:none;fill-rule:nonzero;fill:rgb(94.117647%,60.784314%,14.117647%);fill-opacity:1;" d="M 16.289062 18.988281 C 16.429688 18.988281 16.570312 18.933594 16.675781 18.828125 C 16.882812 18.617188 16.882812 18.273438 16.675781 18.058594 L 13.347656 14.734375 L 12.582031 15.503906 L 15.90625 18.828125 C 16.011719 18.933594 16.148438 18.988281 16.289062 18.988281 Z M 16.289062 18.988281 "/>
<path style=" stroke:none;fill-rule:nonzero;fill:rgb(94.117647%,60.784314%,14.117647%);fill-opacity:1;" d="M 12.21875 20.886719 C 12.355469 20.886719 12.492188 20.835938 12.601562 20.726562 C 12.8125 20.515625 12.8125 20.171875 12.601562 19.960938 L 10.363281 17.71875 L 9.59375 18.488281 L 11.835938 20.726562 C 11.941406 20.835938 12.078125 20.886719 12.21875 20.886719 Z M 12.21875 20.886719 "/>
<path style=" stroke:none;fill-rule:nonzero;fill:rgb(94.117647%,60.784314%,14.117647%);fill-opacity:1;" d="M 26.054688 20.273438 C 24.933594 19.785156 24.289062 19.160156 24.273438 19.144531 C 24.0625 18.933594 23.71875 18.933594 23.507812 19.148438 C 23.296875 19.355469 23.296875 19.699219 23.507812 19.914062 C 23.605469 20.011719 25.601562 21.960938 28.902344 21.960938 C 29.078125 21.960938 29.257812 21.957031 29.441406 21.945312 C 29.679688 21.539062 29.886719 21.152344 30.0625 20.785156 C 28.667969 20.996094 27.320312 20.828125 26.054688 20.273438 Z M 26.054688 20.273438 "/>
<path style=" stroke:none;fill-rule:nonzero;fill:rgb(94.117647%,60.784314%,14.117647%);fill-opacity:1;" d="M 22.136719 22.441406 C 21.945312 22.210938 21.601562 22.179688 21.371094 22.367188 C 21.140625 22.5625 21.109375 22.902344 21.304688 23.132812 C 21.398438 23.253906 23.390625 25.613281 25.765625 26.363281 C 26.085938 26.058594 26.390625 25.757812 26.679688 25.464844 C 24.402344 25.121094 22.160156 22.46875 22.136719 22.441406 Z M 22.136719 22.441406 "/>
<path style=" stroke:none;fill-rule:nonzero;fill:rgb(94.117647%,60.784314%,14.117647%);fill-opacity:1;" d="M 17.535156 25.664062 C 17.320312 25.875 17.320312 26.21875 17.535156 26.429688 C 17.636719 26.535156 19.28125 28.164062 21.042969 29.445312 C 21.429688 29.300781 21.8125 29.128906 22.195312 28.929688 C 20.683594 27.914062 19.015625 26.371094 18.304688 25.664062 C 18.089844 25.449219 17.746094 25.449219 17.535156 25.664062 Z M 17.535156 25.664062 "/>
<path style=" stroke:none;fill-rule:nonzero;fill:rgb(41.176471%,47.058824%,55.294118%);fill-opacity:1;" d="M 12.222656 10.894531 L 8.382812 14.734375 L 0.320312 6.667969 C -0.105469 6.246094 -0.105469 5.558594 0.320312 5.132812 L 2.621094 2.832031 C 3.046875 2.40625 3.734375 2.40625 4.15625 2.832031 Z M 12.222656 10.894531 "/>
<path style=" stroke:none;fill-rule:nonzero;fill:rgb(33.72549%,40.392157%,49.411765%);fill-opacity:1;" d="M 8.382812 14.734375 L 5.691406 12.039062 L 9.527344 8.203125 L 12.222656 10.894531 Z M 8.382812 14.734375 "/>
<path style=" stroke:none;fill-rule:nonzero;fill:rgb(41.176471%,47.058824%,55.294118%);fill-opacity:1;" d="M 17.402344 6.511719 C 16.765625 5.878906 15.734375 5.878906 15.101562 6.511719 L 4.101562 17.511719 C 3.460938 18.148438 3.460938 19.179688 4.101562 19.816406 L 6.726562 22.445312 L 20.039062 9.132812 C 18.472656 7.640625 17.402344 6.511719 17.402344 6.511719 Z M 17.402344 6.511719 "/>
<path style=" stroke:none;fill-rule:nonzero;fill:rgb(23.529412%,74.117647%,90.980392%);fill-opacity:1;" d="M 13.90625 2.851562 C 13.730469 2.703125 13.566406 2.539062 13.417969 2.367188 C 12.949219 1.816406 12.617188 1.15625 12.441406 0.40625 C 12.386719 0.179688 12.179688 0.015625 11.945312 0.015625 C 11.710938 0.015625 11.507812 0.179688 11.449219 0.40625 C 11.273438 1.15625 10.945312 1.816406 10.472656 2.367188 C 10.324219 2.539062 10.160156 2.703125 9.988281 2.851562 C 9.753906 3.054688 9.753906 3.425781 9.988281 3.625 C 10.160156 3.773438 10.324219 3.941406 10.472656 4.113281 C 10.945312 4.664062 11.273438 5.320312 11.449219 6.070312 C 11.507812 6.304688 11.710938 6.460938 11.945312 6.460938 C 12.179688 6.460938 12.386719 6.304688 12.441406 6.070312 C 12.617188 5.320312 12.949219 4.664062 13.417969 4.113281 C 13.566406 3.941406 13.730469 3.773438 13.90625 3.625 C 14.140625 3.425781 14.140625 3.054688 13.90625 2.851562 Z M 13.90625 2.851562 "/>
<path style=" stroke:none;fill-rule:nonzero;fill:rgb(23.529412%,74.117647%,90.980392%);fill-opacity:1;" d="M 31.824219 28.375 C 31.648438 28.226562 31.488281 28.058594 31.335938 27.886719 C 30.867188 27.335938 30.539062 26.679688 30.359375 25.929688 C 30.304688 25.695312 30.101562 25.539062 29.867188 25.539062 C 29.628906 25.539062 29.425781 25.695312 29.367188 25.929688 C 29.191406 26.679688 28.863281 27.335938 28.390625 27.886719 C 28.242188 28.058594 28.078125 28.226562 27.90625 28.375 C 27.671875 28.574219 27.671875 28.945312 27.90625 29.148438 C 28.078125 29.296875 28.242188 29.460938 28.390625 29.632812 C 28.863281 30.183594 29.191406 30.84375 29.367188 31.59375 C 29.425781 31.820312 29.628906 31.984375 29.867188 31.984375 C 30.101562 31.984375 30.304688 31.820312 30.359375 31.59375 C 30.539062 30.84375 30.867188 30.183594 31.335938 29.632812 C 31.488281 29.460938 31.648438 29.296875 31.824219 29.148438 C 32.058594 28.945312 32.058594 28.574219 31.824219 28.375 Z M 31.824219 28.375 "/>
<path style=" stroke:none;fill-rule:nonzero;fill:rgb(23.529412%,74.117647%,90.980392%);fill-opacity:1;" d="M 9.019531 28.375 C 8.84375 28.226562 8.679688 28.058594 8.53125 27.886719 C 8.0625 27.335938 7.730469 26.679688 7.554688 25.929688 C 7.5 25.695312 7.292969 25.539062 7.058594 25.539062 C 6.820312 25.539062 6.617188 25.695312 6.5625 25.929688 C 6.382812 26.679688 6.054688 27.335938 5.585938 27.886719 C 5.4375 28.058594 5.273438 28.226562 5.101562 28.375 C 4.867188 28.574219 4.867188 28.945312 5.101562 29.148438 C 5.273438 29.296875 5.4375 29.460938 5.585938 29.632812 C 6.054688 30.183594 6.382812 30.84375 6.5625 31.59375 C 6.617188 31.820312 6.820312 31.984375 7.058594 31.984375 C 7.292969 31.984375 7.5 31.820312 7.554688 31.59375 C 7.730469 30.84375 8.0625 30.183594 8.53125 29.632812 C 8.679688 29.460938 8.84375 29.296875 9.019531 29.148438 C 9.253906 28.945312 9.253906 28.574219 9.019531 28.375 Z M 9.019531 28.375 "/>
</g>
</svg>
