<?xml version="1.0" encoding="UTF-8"?>
<svg xmlns="http://www.w3.org/2000/svg" xmlns:xlink="http://www.w3.org/1999/xlink" width="32pt" height="32pt" viewBox="0 0 32 32" version="1.1">
<g id="surface1">
<path style=" stroke:none;fill-rule:nonzero;fill:rgb(89.803922%,11.372549%,7.45098%);fill-opacity:1;" d="M 29.871094 16.414062 C 29.742188 16.148438 29.742188 15.851562 29.871094 15.585938 L 31.066406 13.144531 C 31.730469 11.785156 31.203125 10.164062 29.867188 9.457031 L 27.464844 8.179688 C 27.207031 8.042969 27.03125 7.800781 26.976562 7.507812 L 26.507812 4.835938 C 26.246094 3.34375 24.867188 2.34375 23.371094 2.554688 L 20.679688 2.933594 C 20.390625 2.976562 20.101562 2.882812 19.894531 2.679688 L 17.941406 0.789062 C 16.851562 -0.261719 15.148438 -0.261719 14.058594 0.789062 L 12.105469 2.679688 C 11.898438 2.882812 11.609375 2.976562 11.320312 2.933594 L 8.628906 2.554688 C 7.132812 2.34375 5.753906 3.34375 5.492188 4.835938 L 5.023438 7.507812 C 4.96875 7.800781 4.792969 8.042969 4.535156 8.179688 L 2.132812 9.457031 C 0.796875 10.164062 0.269531 11.785156 0.933594 13.144531 L 2.128906 15.585938 C 2.257812 15.851562 2.257812 16.148438 2.128906 16.414062 L 0.933594 18.855469 C 0.269531 20.214844 0.796875 21.835938 2.132812 22.542969 L 4.535156 23.820312 C 4.792969 23.957031 4.96875 24.199219 5.023438 24.492188 L 5.492188 27.164062 C 5.753906 28.65625 7.132812 29.65625 8.628906 29.445312 L 11.320312 29.066406 C 11.609375 29.023438 11.898438 29.117188 12.105469 29.320312 L 14.058594 31.210938 C 14.601562 31.738281 15.304688 32 16 32 C 16.695312 32 17.398438 31.738281 17.941406 31.210938 L 19.894531 29.320312 C 20.101562 29.117188 20.390625 29.023438 20.679688 29.066406 L 23.371094 29.445312 C 23.507812 29.464844 23.640625 29.476562 23.773438 29.476562 C 25.109375 29.476562 26.273438 28.523438 26.507812 27.164062 L 26.976562 24.492188 C 27.03125 24.199219 27.207031 23.957031 27.464844 23.820312 L 29.867188 22.542969 C 31.203125 21.835938 31.730469 20.214844 31.066406 18.855469 Z M 29.871094 16.414062 "/>
<path style=" stroke:none;fill-rule:nonzero;fill:rgb(70.980392%,1.568627%,0%);fill-opacity:1;" d="M 31.066406 13.144531 C 31.730469 11.785156 31.203125 10.164062 29.867188 9.457031 L 27.464844 8.179688 C 27.207031 8.042969 27.03125 7.800781 26.976562 7.507812 L 26.507812 4.835938 C 26.246094 3.34375 24.867188 2.34375 23.371094 2.554688 L 20.679688 2.933594 C 20.390625 2.976562 20.101562 2.882812 19.894531 2.679688 L 17.941406 0.789062 C 17.398438 0.261719 16.695312 0 16 0 L 16 32 C 16.695312 32 17.398438 31.738281 17.941406 31.210938 L 19.894531 29.320312 C 20.101562 29.117188 20.390625 29.023438 20.679688 29.066406 L 23.371094 29.445312 C 23.507812 29.464844 23.640625 29.476562 23.773438 29.476562 C 25.109375 29.476562 26.273438 28.523438 26.507812 27.164062 L 26.976562 24.492188 C 27.03125 24.199219 27.207031 23.957031 27.464844 23.820312 L 29.867188 22.542969 C 31.203125 21.835938 31.730469 20.214844 31.066406 18.855469 L 29.871094 16.414062 C 29.742188 16.148438 29.742188 15.851562 29.871094 15.585938 Z M 31.066406 13.144531 "/>
<path style=" stroke:none;fill-rule:nonzero;fill:rgb(99.215686%,76.470588%,46.666667%);fill-opacity:1;" d="M 11.695312 11.382812 C 11.183594 11.382812 10.773438 11.800781 10.773438 12.308594 L 10.773438 15.78125 L 8.828125 11.898438 C 8.636719 11.511719 8.207031 11.3125 7.789062 11.410156 C 7.375 11.507812 7.078125 11.882812 7.078125 12.308594 L 7.078125 19.691406 C 7.078125 20.199219 7.492188 20.613281 8.003906 20.613281 C 8.511719 20.613281 8.925781 20.199219 8.925781 19.691406 L 8.925781 16.21875 L 10.867188 20.101562 C 11.027344 20.421875 11.351562 20.617188 11.695312 20.617188 C 11.761719 20.617188 11.835938 20.605469 11.90625 20.589844 C 12.320312 20.492188 12.617188 20.117188 12.617188 19.691406 L 12.617188 12.308594 C 12.617188 11.800781 12.203125 11.382812 11.695312 11.382812 Z M 11.695312 11.382812 "/>
<path style=" stroke:none;fill-rule:nonzero;fill:rgb(99.215686%,76.470588%,46.666667%);fill-opacity:1;" d="M 17.847656 13.230469 C 18.355469 13.230469 18.769531 12.820312 18.769531 12.308594 C 18.769531 11.800781 18.355469 11.382812 17.847656 11.382812 L 14.152344 11.382812 C 13.644531 11.382812 13.230469 11.800781 13.230469 12.308594 L 13.230469 19.691406 C 13.230469 20.199219 13.644531 20.613281 14.152344 20.613281 L 17.847656 20.613281 C 18.355469 20.613281 18.769531 20.199219 18.769531 19.691406 C 18.769531 19.179688 18.355469 18.769531 17.847656 18.769531 L 15.078125 18.769531 L 15.078125 16.921875 L 17.230469 16.921875 C 17.742188 16.921875 18.152344 16.507812 18.152344 16 C 18.152344 15.492188 17.742188 15.078125 17.230469 15.078125 L 15.078125 15.078125 L 15.078125 13.230469 Z M 17.847656 13.230469 "/>
<path style=" stroke:none;fill-rule:nonzero;fill:rgb(100%,69.803922%,33.333333%);fill-opacity:1;" d="M 18.152344 16 C 18.152344 15.492188 17.742188 15.078125 17.230469 15.078125 L 16 15.078125 L 16 16.921875 L 17.230469 16.921875 C 17.742188 16.921875 18.152344 16.507812 18.152344 16 Z M 18.152344 16 "/>
<path style=" stroke:none;fill-rule:nonzero;fill:rgb(100%,69.803922%,33.333333%);fill-opacity:1;" d="M 17.847656 11.382812 L 16 11.382812 L 16 13.230469 L 17.847656 13.230469 C 18.355469 13.230469 18.769531 12.820312 18.769531 12.308594 C 18.769531 11.800781 18.355469 11.382812 17.847656 11.382812 Z M 17.847656 11.382812 "/>
<path style=" stroke:none;fill-rule:nonzero;fill:rgb(100%,69.803922%,33.333333%);fill-opacity:1;" d="M 18.769531 19.691406 C 18.769531 19.179688 18.355469 18.769531 17.847656 18.769531 L 16 18.769531 L 16 20.613281 L 17.847656 20.613281 C 18.355469 20.617188 18.769531 20.199219 18.769531 19.691406 Z M 18.769531 19.691406 "/>
<path style=" stroke:none;fill-rule:nonzero;fill:rgb(100%,69.803922%,33.333333%);fill-opacity:1;" d="M 23.996094 11.382812 C 23.488281 11.382812 23.074219 11.800781 23.074219 12.308594 L 23.074219 15.78125 L 22.976562 15.585938 C 22.820312 15.273438 22.5 15.078125 22.152344 15.078125 C 21.804688 15.078125 21.484375 15.273438 21.324219 15.585938 L 21.226562 15.78125 L 21.226562 12.308594 C 21.226562 11.800781 20.816406 11.382812 20.304688 11.382812 C 19.796875 11.382812 19.382812 11.800781 19.382812 12.308594 L 19.382812 19.691406 C 19.382812 20.117188 19.679688 20.492188 20.09375 20.589844 C 20.511719 20.6875 20.941406 20.488281 21.132812 20.101562 L 22.152344 18.0625 L 23.171875 20.101562 C 23.332031 20.421875 23.652344 20.617188 23.996094 20.617188 C 24.070312 20.617188 24.136719 20.605469 24.210938 20.589844 C 24.625 20.492188 24.921875 20.117188 24.921875 19.691406 L 24.921875 12.308594 C 24.921875 11.800781 24.507812 11.382812 23.996094 11.382812 Z M 23.996094 11.382812 "/>
</g>
</svg>
