<?xml version="1.0" encoding="UTF-8"?>
<svg xmlns="http://www.w3.org/2000/svg" xmlns:xlink="http://www.w3.org/1999/xlink" width="32pt" height="32pt" viewBox="0 0 32 32" version="1.1">
<g id="surface1">
<path style=" stroke:none;fill-rule:nonzero;fill:rgb(19.607843%,23.529412%,41.960784%);fill-opacity:1;" d="M 4.542969 26.429688 C 4.484375 26.429688 4.429688 26.40625 4.390625 26.367188 L 2.148438 24.121094 C 2.066406 24.039062 2.066406 23.902344 2.148438 23.820312 C 2.234375 23.738281 2.367188 23.734375 2.453125 23.820312 L 4.695312 26.0625 C 4.757812 26.121094 4.777344 26.214844 4.742188 26.296875 C 4.710938 26.378906 4.632812 26.429688 4.542969 26.429688 Z M 4.542969 26.429688 "/>
<path style=" stroke:none;fill-rule:nonzero;fill:rgb(19.607843%,23.529412%,41.960784%);fill-opacity:1;" d="M 5.609375 27.496094 C 5.554688 27.496094 5.496094 27.476562 5.457031 27.433594 L 5.117188 27.097656 C 5.039062 27.011719 5.039062 26.875 5.121094 26.792969 C 5.207031 26.710938 5.339844 26.710938 5.425781 26.789062 L 5.761719 27.128906 C 5.824219 27.191406 5.84375 27.285156 5.808594 27.367188 C 5.777344 27.445312 5.695312 27.496094 5.609375 27.496094 Z M 5.609375 27.496094 "/>
<path style=" stroke:none;fill-rule:nonzero;fill:rgb(93.333333%,93.72549%,93.333333%);fill-opacity:1;" d="M 16.179688 26.882812 L 13.078125 29.992188 C 12.691406 30.378906 12.164062 30.597656 11.617188 30.597656 C 11.066406 30.597656 10.539062 30.378906 10.152344 29.992188 L 1.75 21.585938 C 1.148438 20.980469 1.148438 20 1.75 19.394531 L 5.226562 15.925781 Z M 16.179688 26.882812 "/>
<path style=" stroke:none;fill-rule:nonzero;fill:rgb(19.607843%,23.529412%,41.960784%);fill-opacity:1;" d="M 11.617188 30.8125 C 11.007812 30.8125 10.429688 30.570312 10 30.140625 L 1.601562 21.742188 C 0.914062 21.050781 0.914062 19.929688 1.601562 19.242188 L 5.070312 15.773438 C 5.15625 15.6875 5.292969 15.6875 5.378906 15.773438 L 16.335938 26.730469 C 16.421875 26.816406 16.421875 26.953125 16.335938 27.039062 L 13.230469 30.140625 C 12.804688 30.570312 12.222656 30.8125 11.617188 30.8125 Z M 5.226562 16.230469 L 1.902344 19.546875 C 1.382812 20.070312 1.382812 20.910156 1.902344 21.429688 L 10.304688 29.835938 C 10.652344 30.183594 11.125 30.382812 11.617188 30.382812 C 12.105469 30.382812 12.578125 30.183594 12.925781 29.835938 L 15.875 26.882812 Z M 5.226562 16.230469 "/>
<path style=" stroke:none;fill-rule:nonzero;fill:rgb(85.882353%,84.705882%,86.666667%);fill-opacity:1;" d="M 5.226562 15.925781 L 15.316406 26.019531 L 12.210938 29.125 C 11.824219 29.511719 11.300781 29.730469 10.75 29.730469 C 10.203125 29.730469 9.675781 29.511719 9.289062 29.125 L 10.152344 29.992188 C 10.539062 30.378906 11.066406 30.597656 11.617188 30.597656 C 12.164062 30.597656 12.691406 30.378906 13.078125 29.992188 L 16.179688 26.882812 Z M 5.226562 15.925781 "/>
<path style=" stroke:none;fill-rule:nonzero;fill:rgb(93.333333%,93.72549%,93.333333%);fill-opacity:1;" d="M 30.25 12.820312 L 26.773438 16.289062 L 15.820312 5.332031 L 19.289062 1.859375 C 19.890625 1.253906 20.875 1.253906 21.476562 1.859375 L 30.25 10.625 C 30.851562 11.230469 30.851562 12.210938 30.25 12.820312 Z M 30.25 12.820312 "/>
<path style=" stroke:none;fill-rule:nonzero;fill:rgb(19.607843%,23.529412%,41.960784%);fill-opacity:1;" d="M 26.773438 16.507812 C 26.71875 16.507812 26.664062 16.484375 26.621094 16.445312 L 15.664062 5.484375 C 15.582031 5.398438 15.582031 5.261719 15.664062 5.179688 L 19.132812 1.707031 C 19.824219 1.019531 20.941406 1.019531 21.632812 1.707031 L 30.398438 10.472656 C 31.085938 11.164062 31.085938 12.277344 30.398438 12.96875 L 26.929688 16.445312 C 26.886719 16.480469 26.835938 16.507812 26.773438 16.507812 Z M 16.125 5.332031 L 26.773438 15.984375 L 30.097656 12.664062 C 30.617188 12.144531 30.617188 11.300781 30.097656 10.777344 L 21.324219 2.011719 C 20.804688 1.492188 19.960938 1.492188 19.441406 2.011719 Z M 16.125 5.332031 "/>
<path style=" stroke:none;fill-rule:nonzero;fill:rgb(85.882353%,84.705882%,86.666667%);fill-opacity:1;" d="M 30.25 10.625 L 21.476562 1.859375 C 21.019531 1.398438 20.320312 1.277344 19.734375 1.554688 C 19.898438 1.628906 20.054688 1.730469 20.179688 1.859375 L 28.949219 10.625 C 29.554688 11.230469 29.554688 12.210938 28.949219 12.820312 L 26.128906 15.640625 L 26.773438 16.289062 L 30.25 12.820312 C 30.851562 12.210938 30.851562 11.230469 30.25 10.625 Z M 30.25 10.625 "/>
<path style=" stroke:none;fill-rule:nonzero;fill:rgb(19.607843%,23.529412%,41.960784%);fill-opacity:1;" d="M 8.742188 10.058594 C 8.652344 10.058594 8.570312 10.007812 8.539062 9.925781 C 8.507812 9.84375 8.523438 9.753906 8.585938 9.691406 L 12.472656 5.804688 C 12.554688 5.726562 12.691406 5.726562 12.773438 5.808594 C 12.859375 5.890625 12.859375 6.027344 12.777344 6.113281 L 8.890625 9.996094 C 8.851562 10.039062 8.796875 10.058594 8.742188 10.058594 Z M 8.742188 10.058594 "/>
<path style=" stroke:none;fill-rule:nonzero;fill:rgb(19.607843%,23.529412%,41.960784%);fill-opacity:1;" d="M 6.742188 12.054688 C 6.65625 12.054688 6.578125 12 6.542969 11.921875 C 6.507812 11.839844 6.527344 11.746094 6.589844 11.683594 L 7.097656 11.179688 C 7.179688 11.097656 7.320312 11.097656 7.398438 11.179688 C 7.484375 11.265625 7.484375 11.398438 7.402344 11.484375 L 6.898438 11.992188 C 6.855469 12.03125 6.800781 12.054688 6.742188 12.054688 Z M 6.742188 12.054688 "/>
<path style=" stroke:none;fill-rule:nonzero;fill:rgb(99.607843%,81.960784%,60.392157%);fill-opacity:1;" d="M 26.835938 16.960938 L 16.851562 26.945312 C 16.683594 27.113281 16.410156 27.113281 16.242188 26.945312 L 16.179688 26.882812 L 5.226562 15.925781 L 5.164062 15.867188 C 4.992188 15.695312 4.992188 15.421875 5.164062 15.253906 L 15.148438 5.273438 C 15.316406 5.101562 15.589844 5.101562 15.757812 5.273438 L 15.820312 5.332031 L 26.773438 16.289062 L 26.835938 16.351562 C 27.003906 16.519531 27.003906 16.789062 26.835938 16.960938 Z M 26.835938 16.960938 "/>
<path style=" stroke:none;fill-rule:nonzero;fill:rgb(19.607843%,23.529412%,41.960784%);fill-opacity:1;" d="M 16.546875 27.289062 C 16.375 27.289062 16.210938 27.21875 16.089844 27.097656 L 16.027344 27.039062 L 5.007812 16.019531 C 4.757812 15.765625 4.757812 15.351562 5.007812 15.101562 L 14.992188 5.117188 C 15.25 4.871094 15.652344 4.871094 15.910156 5.117188 L 15.972656 5.179688 L 26.992188 16.195312 C 27.109375 16.320312 27.179688 16.484375 27.179688 16.65625 C 27.179688 16.828125 27.109375 16.992188 26.992188 17.113281 L 17.003906 27.097656 C 16.882812 27.21875 16.71875 27.289062 16.546875 27.289062 Z M 15.453125 5.363281 C 15.398438 5.363281 15.339844 5.382812 15.300781 5.425781 L 5.316406 15.40625 C 5.230469 15.492188 5.230469 15.628906 5.316406 15.710938 L 5.378906 15.773438 L 16.394531 26.792969 C 16.476562 26.875 16.613281 26.875 16.695312 26.792969 L 26.679688 16.808594 C 26.722656 16.769531 26.746094 16.710938 26.746094 16.65625 C 26.746094 16.601562 26.722656 16.546875 26.679688 16.507812 L 26.621094 16.445312 L 15.605469 5.425781 C 15.566406 5.382812 15.507812 5.363281 15.453125 5.363281 Z M 15.453125 5.363281 "/>
<path style=" stroke:none;fill-rule:nonzero;fill:rgb(95.686275%,73.333333%,52.941176%);fill-opacity:1;" d="M 5.164062 15.867188 L 5.21875 15.921875 Z M 5.164062 15.867188 "/>
<path style=" stroke:none;fill-rule:nonzero;fill:rgb(95.686275%,73.333333%,52.941176%);fill-opacity:1;" d="M 26.835938 16.351562 L 26.773438 16.289062 L 15.820312 5.332031 L 15.8125 5.328125 L 25.914062 15.425781 L 25.972656 15.484375 C 26.140625 15.652344 26.140625 15.925781 25.972656 16.09375 L 15.988281 26.082031 C 15.820312 26.246094 15.546875 26.246094 15.378906 26.082031 L 16.242188 26.945312 C 16.410156 27.113281 16.683594 27.113281 16.851562 26.945312 L 26.835938 16.960938 C 27.003906 16.789062 27.003906 16.519531 26.835938 16.351562 Z M 26.835938 16.351562 "/>
<path style=" stroke:none;fill-rule:nonzero;fill:rgb(19.607843%,23.529412%,41.960784%);fill-opacity:1;" d="M 26.773438 16.507812 C 26.71875 16.507812 26.664062 16.484375 26.621094 16.445312 L 15.664062 5.484375 C 15.582031 5.398438 15.582031 5.261719 15.664062 5.179688 L 19.132812 1.707031 C 19.824219 1.019531 20.941406 1.019531 21.632812 1.707031 L 30.398438 10.472656 C 31.085938 11.164062 31.085938 12.277344 30.398438 12.96875 L 26.929688 16.445312 C 26.886719 16.480469 26.835938 16.507812 26.773438 16.507812 Z M 16.125 5.332031 L 26.773438 15.984375 L 30.097656 12.664062 C 30.617188 12.144531 30.617188 11.300781 30.097656 10.777344 L 21.324219 2.011719 C 20.804688 1.492188 19.960938 1.492188 19.441406 2.011719 Z M 16.125 5.332031 "/>
<path style=" stroke:none;fill-rule:nonzero;fill:rgb(19.607843%,23.529412%,41.960784%);fill-opacity:1;" d="M 16.546875 27.289062 C 16.375 27.289062 16.210938 27.21875 16.089844 27.097656 L 16.027344 27.039062 L 5.007812 16.019531 C 4.757812 15.765625 4.757812 15.351562 5.007812 15.101562 L 14.992188 5.117188 C 15.25 4.871094 15.652344 4.871094 15.910156 5.117188 L 15.972656 5.179688 L 26.992188 16.195312 C 27.109375 16.320312 27.179688 16.484375 27.179688 16.65625 C 27.179688 16.828125 27.109375 16.992188 26.992188 17.113281 L 17.003906 27.097656 C 16.882812 27.21875 16.71875 27.289062 16.546875 27.289062 Z M 15.453125 5.363281 C 15.398438 5.363281 15.339844 5.382812 15.300781 5.425781 L 5.316406 15.40625 C 5.230469 15.492188 5.230469 15.628906 5.316406 15.710938 L 5.378906 15.773438 L 16.394531 26.792969 C 16.476562 26.875 16.613281 26.875 16.695312 26.792969 L 26.679688 16.808594 C 26.722656 16.769531 26.746094 16.710938 26.746094 16.65625 C 26.746094 16.601562 26.722656 16.546875 26.679688 16.507812 L 26.621094 16.445312 L 15.605469 5.425781 C 15.566406 5.382812 15.507812 5.363281 15.453125 5.363281 Z M 15.453125 5.363281 "/>
<path style=" stroke:none;fill-rule:nonzero;fill:rgb(19.607843%,23.529412%,41.960784%);fill-opacity:1;" d="M 11.617188 30.8125 C 11.007812 30.8125 10.429688 30.570312 10 30.140625 L 1.601562 21.742188 C 0.914062 21.050781 0.914062 19.929688 1.601562 19.242188 L 5.070312 15.773438 C 5.15625 15.6875 5.292969 15.6875 5.378906 15.773438 L 16.335938 26.730469 C 16.421875 26.816406 16.421875 26.953125 16.335938 27.039062 L 13.230469 30.140625 C 12.804688 30.570312 12.222656 30.8125 11.617188 30.8125 Z M 5.226562 16.230469 L 1.902344 19.546875 C 1.382812 20.070312 1.382812 20.910156 1.902344 21.429688 L 10.304688 29.835938 C 10.652344 30.183594 11.125 30.382812 11.617188 30.382812 C 12.105469 30.382812 12.578125 30.183594 12.925781 29.835938 L 15.875 26.882812 Z M 5.226562 16.230469 "/>
<path style=" stroke:none;fill-rule:nonzero;fill:rgb(19.607843%,23.529412%,41.960784%);fill-opacity:1;" d="M 29.175781 30.789062 L 2.566406 30.789062 C 2.445312 30.789062 2.351562 30.695312 2.351562 30.570312 C 2.351562 30.453125 2.445312 30.355469 2.566406 30.355469 L 29.175781 30.355469 C 29.292969 30.355469 29.390625 30.453125 29.390625 30.570312 C 29.390625 30.695312 29.292969 30.789062 29.175781 30.789062 Z M 29.175781 30.789062 "/>
<path style=" stroke:none;fill-rule:nonzero;fill:rgb(93.333333%,93.72549%,93.333333%);fill-opacity:1;" d="M 15.964844 8.804688 C 16.164062 8.605469 16.488281 8.605469 16.683594 8.804688 L 21.28125 13.398438 C 21.480469 13.601562 21.480469 13.921875 21.28125 14.121094 C 21.085938 14.320312 20.757812 14.320312 20.5625 14.121094 L 15.964844 9.523438 C 15.765625 9.328125 15.765625 9.003906 15.964844 8.804688 Z M 15.964844 8.804688 "/>
<path style=" stroke:none;fill-rule:nonzero;fill:rgb(93.333333%,93.72549%,93.333333%);fill-opacity:1;" d="M 22.203125 15.042969 C 22.402344 14.847656 22.726562 14.847656 22.925781 15.042969 L 23.117188 15.238281 C 23.320312 15.4375 23.320312 15.757812 23.117188 15.960938 C 22.917969 16.160156 22.597656 16.160156 22.398438 15.960938 L 22.203125 15.765625 C 22.007812 15.566406 22.007812 15.242188 22.203125 15.042969 Z M 22.203125 15.042969 "/>
</g>
</svg>
