<?xml version="1.0" encoding="UTF-8"?>
<svg xmlns="http://www.w3.org/2000/svg" xmlns:xlink="http://www.w3.org/1999/xlink" width="32pt" height="32pt" viewBox="0 0 32 32" version="1.1">
<g id="surface1">
<path style=" stroke:none;fill-rule:nonzero;fill:rgb(0%,64.705882%,78.039216%);fill-opacity:1;" d="M 18.042969 18.042969 L 17.820312 22.515625 L 21.765625 21.765625 L 30.859375 12.675781 C 31.757812 11.777344 31.757812 10.328125 30.859375 9.429688 L 28.757812 7.328125 Z M 18.042969 18.042969 "/>
<path style=" stroke:none;fill-rule:nonzero;fill:rgb(74.901961%,30.588235%,34.117647%);fill-opacity:1;" d="M 18.042969 18.042969 L 7.328125 28.757812 L 9.429688 30.859375 C 10.328125 31.757812 11.777344 31.757812 12.671875 30.859375 L 21.765625 21.765625 Z M 18.042969 18.042969 "/>
<path style=" stroke:none;fill-rule:nonzero;fill:rgb(25.882353%,76.470588%,88.627451%);fill-opacity:1;" d="M 19.324219 1.140625 L 10.234375 10.234375 L 12.601562 17.296875 L 19.664062 19.664062 L 28.757812 10.570312 C 29.652344 9.675781 29.652344 8.226562 28.757812 7.328125 L 22.570312 1.140625 C 21.671875 0.242188 20.222656 0.242188 19.324219 1.140625 Z M 19.324219 1.140625 "/>
<path style=" stroke:none;fill-rule:nonzero;fill:rgb(86.27451%,35.294118%,39.215686%);fill-opacity:1;" d="M 10.234375 10.234375 L 19.664062 19.664062 L 10.570312 28.757812 C 9.675781 29.652344 8.226562 29.652344 7.328125 28.757812 L 1.140625 22.570312 C 0.242188 21.671875 0.242188 20.222656 1.140625 19.324219 Z M 10.234375 10.234375 "/>
<path style=" stroke:none;fill-rule:nonzero;fill:rgb(0%,0%,0%);fill-opacity:1;" d="M 18.65625 5.257812 L 18.175781 5.738281 C 17.992188 5.917969 17.992188 6.214844 18.175781 6.398438 C 18.351562 6.578125 18.65625 6.582031 18.835938 6.398438 L 19.320312 5.917969 C 19.503906 5.734375 19.503906 5.4375 19.320312 5.257812 C 19.132812 5.070312 18.835938 5.070312 18.65625 5.257812 Z M 18.65625 5.257812 "/>
<path style=" stroke:none;fill-rule:nonzero;fill:rgb(0%,0%,0%);fill-opacity:1;" d="M 23.820312 11.851562 C 23.945312 11.851562 24.0625 11.808594 24.152344 11.714844 L 24.632812 11.234375 C 24.820312 11.054688 24.820312 10.757812 24.632812 10.570312 C 24.453125 10.390625 24.15625 10.390625 23.972656 10.570312 L 23.492188 11.054688 C 23.308594 11.238281 23.308594 11.535156 23.492188 11.714844 C 23.582031 11.808594 23.703125 11.851562 23.820312 11.851562 Z M 23.820312 11.851562 "/>
<path style=" stroke:none;fill-rule:nonzero;fill:rgb(0%,0%,0%);fill-opacity:1;" d="M 21.820312 8.882812 C 21.613281 8.898438 21.398438 8.8125 21.242188 8.652344 C 21.078125 8.492188 20.996094 8.277344 21.007812 8.070312 C 21.027344 7.808594 20.832031 7.585938 20.570312 7.570312 C 20.316406 7.550781 20.089844 7.746094 20.074219 8.007812 C 20.039062 8.488281 20.226562 8.960938 20.574219 9.316406 C 20.917969 9.65625 21.398438 9.851562 21.882812 9.820312 C 22.144531 9.800781 22.335938 9.574219 22.320312 9.320312 C 22.304688 9.058594 22.082031 8.867188 21.820312 8.882812 Z M 21.820312 8.882812 "/>
<path style=" stroke:none;fill-rule:nonzero;fill:rgb(0%,0%,0%);fill-opacity:1;" d="M 29.085938 6.992188 C 29.085938 6.992188 22.902344 0.804688 22.898438 0.804688 C 21.835938 -0.261719 20.054688 -0.257812 18.992188 0.804688 L 4.0625 15.738281 C 3.878906 15.917969 3.878906 16.214844 4.0625 16.398438 C 4.242188 16.582031 4.539062 16.582031 4.726562 16.398438 L 10.230469 10.890625 L 19 19.660156 C 19 19.660156 10.242188 28.417969 10.238281 28.421875 C 9.828125 28.832031 9.234375 29.023438 8.664062 28.929688 C 8.285156 28.871094 7.929688 28.691406 7.660156 28.421875 L 1.46875 22.230469 C 0.757812 21.523438 0.757812 20.363281 1.472656 19.652344 L 3.410156 17.710938 C 3.59375 17.527344 3.59375 17.230469 3.410156 17.050781 C 3.226562 16.867188 2.929688 16.867188 2.746094 17.050781 L 0.804688 18.992188 C -0.269531 20.066406 -0.269531 21.820312 0.804688 22.894531 L 9.101562 31.1875 C 9.621094 31.710938 10.316406 31.992188 11.054688 31.992188 C 11.789062 31.992188 12.480469 31.710938 13.003906 31.1875 L 31.191406 13 C 31.710938 12.476562 32 11.785156 32 11.046875 C 32 10.308594 31.710938 9.617188 31.191406 9.09375 Z M 12.339844 30.523438 C 11.996094 30.867188 11.539062 31.054688 11.054688 31.054688 C 10.566406 31.054688 10.105469 30.867188 9.761719 30.523438 L 9.125 29.886719 C 9.609375 29.855469 10.070312 29.703125 10.464844 29.4375 C 10.46875 29.4375 10.773438 29.214844 10.902344 29.085938 L 19.664062 20.320312 L 21.101562 21.761719 Z M 30.527344 12.335938 L 21.765625 21.101562 L 20.328125 19.660156 L 22.222656 17.765625 C 22.402344 17.582031 22.402344 17.285156 22.222656 17.101562 C 22.039062 16.917969 21.742188 16.917969 21.558594 17.101562 L 19.664062 18.996094 L 10.898438 10.226562 C 10.898438 10.226562 19.648438 1.472656 19.65625 1.464844 C 20.359375 0.761719 21.535156 0.761719 22.238281 1.464844 L 28.425781 7.65625 C 28.769531 8 28.960938 8.457031 28.960938 8.945312 C 28.960938 9.429688 28.769531 9.890625 28.425781 10.234375 L 22.863281 15.796875 C 22.679688 15.980469 22.679688 16.277344 22.863281 16.460938 C 23.042969 16.644531 23.339844 16.644531 23.523438 16.460938 L 29.085938 10.898438 C 29.289062 10.695312 29.457031 10.46875 29.585938 10.21875 C 29.761719 9.882812 29.867188 9.503906 29.890625 9.121094 L 30.527344 9.757812 C 30.871094 10.101562 31.0625 10.558594 31.0625 11.046875 C 31.0625 11.535156 30.871094 11.992188 30.527344 12.335938 Z M 30.527344 12.335938 "/>
</g>
</svg>
